<svg xmlns="http://www.w3.org/2000/svg" width="16" height="16" viewBox="0 0 16 16"><defs><linearGradient id="a" x1="0%" x2="100%" y1="0%" y2="100%"><stop offset="0%" style="stop-color:#a359bc"/><stop offset="100%" style="stop-color:#9d4edd"/></linearGradient></defs><rect width="16" height="16" fill="url(#a)" rx="2"/><g fill="none" stroke="#fff" stroke-linejoin="round"><path d="m9.5 4 2 1.5V8l-2 1.5-2-1.5V5.5z" opacity=".8"/><path d="m6.5 6 2 1.5V10l-2 1.5-2-1.5V7.5z"/></g></svg><svg xmlns="http://www.w3.org/2000/svg" width="32" height="32" viewBox="0 0 32 32"><defs><linearGradient id="b" x1="0%" x2="100%" y1="0%" y2="100%"><stop offset="0%" style="stop-color:#a359bc"/><stop offset="100%" style="stop-color:#9d4edd"/></linearGradient></defs><rect width="32" height="32" fill="url(#b)" rx="4"/><g fill="none" stroke="#fff" stroke-linejoin="round" stroke-width="1.5"><path d="m19 8 4 3v5l-4 3-4-3v-5z" opacity=".8"/><path d="m13 12 4 3v5l-4 3-4-3v-5z"/></g></svg><svg xmlns="http://www.w3.org/2000/svg" width="48" height="48" viewBox="0 0 48 48"><defs><linearGradient id="c" x1="0%" x2="100%" y1="0%" y2="100%"><stop offset="0%" style="stop-color:#a359bc"/><stop offset="30%" style="stop-color:#a855f7"/><stop offset="100%" style="stop-color:#9d4edd"/></linearGradient></defs><rect width="48" height="48" fill="url(#c)" rx="6"/><g fill="none" stroke="#fff" stroke-linejoin="round" stroke-width="2"><path d="m28 12 6 4.5V24l-6 4.5-6-4.5v-7.5z" opacity=".8"/><path d="m20 18 6 4.5V30l-6 4.5-6-4.5v-7.5z"/></g></svg>