<svg xmlns="http://www.w3.org/2000/svg" width="824" height="100" viewBox="0 0 824 100"><defs><path id="a" d="M56.896-139.829h527.493v85.826H56.896z"/></defs><path fill="#4285f4" d="M1.489 39.743c0-20.258 16.974-36.673 37.232-36.673 11.176 0 19.14 4.4 25.147 10.129l-7.125 7.055c-4.261-4.052-10.059-7.195-18.022-7.195-14.74 0-26.265 11.875-26.265 26.614S23.982 66.287 38.72 66.287c9.57 0 15.018-3.842 18.51-7.335 2.865-2.864 4.75-6.985 5.45-12.573H38.72v-9.99h33.74c.35 1.817.559 3.912.559 6.287 0 7.545-2.026 16.835-8.662 23.401-6.496 6.706-14.74 10.269-25.636 10.269-20.258 0-37.232-16.416-37.232-36.603"/><path fill="#ea4335" d="M100.192 29.195c-13.063 0-23.68 9.919-23.68 23.61 0 13.621 10.617 23.61 23.68 23.61s23.68-9.989 23.68-23.61c0-13.691-10.618-23.61-23.68-23.61m0 37.86c-7.125 0-13.342-5.868-13.342-14.32 0-8.522 6.147-14.32 13.342-14.32 7.125 0 13.342 5.798 13.342 14.32 0 8.452-6.217 14.32-13.342 14.32"/><path fill="#fbbc05" d="M151.883 29.195c-13.062 0-23.68 9.919-23.68 23.61 0 13.621 10.618 23.61 23.68 23.61 13.063 0 23.68-9.989 23.68-23.61 0-13.691-10.617-23.61-23.68-23.61m0 37.86c-7.125 0-13.342-5.868-13.342-14.32 0-8.522 6.147-14.32 13.342-14.32s13.342 5.798 13.342 14.32c0 8.452-6.217 14.32-13.342 14.32"/><path fill="#4285f4" d="M215.31 30.592v3.842h-.35c-2.304-2.794-6.775-5.309-12.433-5.309-11.805 0-22.633 10.338-22.633 23.68 0 13.202 10.828 23.54 22.633 23.54 5.658 0 10.129-2.514 12.434-5.378h.349v3.423c0 9.01-4.82 13.83-12.574 13.83-6.356 0-10.268-4.54-11.875-8.382l-9.01 3.772c2.584 6.287 9.5 13.97 20.955 13.97 12.155 0 22.423-7.124 22.423-24.587V30.592zm-11.875 36.463c-7.125 0-13.133-6.007-13.133-14.25 0-8.312 6.008-14.39 13.133-14.39 7.055 0 12.573 6.078 12.573 14.39.07 8.313-5.518 14.25-12.573 14.25"/><path fill="#34a853" d="M242.692 74.949h-10.338V5.585h10.338z"/><path fill="#ea4335" d="M271.123 67.055c-5.31 0-9.011-2.445-11.456-7.125l31.573-13.062-1.047-2.655c-1.956-5.309-7.964-15.018-20.188-15.018-12.154 0-22.283 9.57-22.283 23.61 0 13.202 9.989 23.61 23.4 23.61 10.828 0 17.045-6.636 19.7-10.478l-8.034-5.378c-2.724 3.912-6.356 6.496-11.665 6.496m-.769-28.78c4.122 0 7.614 2.026 8.732 5.03l-21.096 8.732c-.28-9.081 7.055-13.761 12.364-13.761"/><path fill="none" d="M1 98h290.59V3H1z"/><g aria-label="for Startups" style="font-style:normal;font-weight:400;font-size:40px;line-height:1.25;font-family:sans-serif;white-space:pre;shape-inside:url(#a);fill:#000;fill-opacity:1;stroke:none" transform="translate(183.625 309.942)scale(2.27071)"><path d="M68.176-132.131q2 0 3.28.68l-1 3.24q-.96-.48-2.16-.48-1.36 0-2.24.96-.84.92-.84 2.48v2.48h5.12v3.36h-5.12v16.24h-3.68v-16.24h-3.68v-3.36h3.68v-2.84q0-2.92 1.84-4.72 1.88-1.8 4.8-1.8m3.356 19.16q0-4.52 2.84-7.48 2.88-2.96 7.24-2.96t7.2 2.96q2.88 2.96 2.88 7.48 0 4.56-2.88 7.48-2.84 2.96-7.2 2.96t-7.24-2.96q-2.84-2.96-2.84-7.48m3.68 0q0 3.16 1.84 5.12t4.56 1.96 4.56-1.96 1.84-5.12q0-3.12-1.84-5.08-1.88-2-4.56-2t-4.56 2q-1.84 1.96-1.84 5.08m23.151 9.8h-3.68v-19.6h3.52v3.2h.16q.56-1.56 2.28-2.64 1.76-1.12 3.44-1.12 1.6 0 2.72.48l-1.12 3.56q-.68-.28-2.16-.28-2.08 0-3.64 1.68-1.52 1.68-1.52 3.92zm36.827-7.64q0 3.76-2.76 6.04-2.8 2.24-6.8 2.24-3.56 0-6.28-2.08t-3.76-5.68l3.52-1.44q.36 1.28 1 2.32t1.48 1.8q.88.72 1.92 1.16 1.04.4 2.2.4 2.52 0 4.12-1.28 1.6-1.32 1.6-3.48 0-1.8-1.32-3.08-1.24-1.24-4.64-2.4-3.44-1.24-4.28-1.68-4.56-2.32-4.56-6.84 0-3.16 2.52-5.4 2.56-2.24 6.28-2.24 3.28 0 5.68 1.68 2.4 1.64 3.2 4.12l-3.44 1.44q-.48-1.6-1.92-2.64-1.4-1.08-3.44-1.08-2.16 0-3.64 1.2-1.48 1.12-1.48 2.92 0 1.48 1.16 2.56 1.28 1.08 5.56 2.56 4.36 1.48 6.2 3.64 1.88 2.12 1.88 5.24m10.535 7.96q-2.4 0-4-1.48-1.56-1.48-1.6-4.12v-10.96h-3.44v-3.36h3.44v-6h3.68v6h4.8v3.36h-4.8v9.76q0 1.96.76 2.68.76.68 1.72.68.44 0 .84-.08.44-.12.8-.28l1.16 3.28q-1.44.52-3.36.52m8.67-6.32q0 1.44 1.2 2.4 1.24.96 2.88.96 2.32 0 4.12-1.72 1.84-1.72 1.84-4.04-1.72-1.36-4.8-1.36-2.24 0-3.76 1.08-1.48 1.08-1.48 2.68m4.76-14.24q4.08 0 6.44 2.2 2.36 2.16 2.36 5.96v12.08h-3.52v-2.72h-.16q-2.28 3.36-6.08 3.36-3.24 0-5.44-1.92-2.16-1.92-2.16-4.8 0-3.04 2.28-4.84 2.32-1.8 6.16-1.8 3.28 0 5.4 1.2v-.84q0-1.92-1.52-3.24-1.52-1.36-3.56-1.36-3.08 0-4.88 2.6l-3.24-2.04q2.68-3.84 7.92-3.84m35.91 20.56q-2.4 0-4-1.48-1.56-1.48-1.6-4.12v-10.96h-3.44v-3.36h3.44v-6h3.68v6h4.8v3.36h-4.8v9.76q0 1.96.76 2.68.76.68 1.72.68.44 0 .84-.08.44-.12.8-.28l1.16 3.28q-1.44.52-3.36.52m-22.96-19.92h3.52v3.2h.16q1.64-3.76 6.76-3.76l.76.08v3.84l-1.64-.16q-2.56 0-4.24 1.6-1.64 1.56-1.64 4v10.8h-3.68zm46.575 19.6h-3.52v-2.72H215q-.84 1.44-2.6 2.4-1.72.96-3.6.96-3.6 0-5.56-2.04-1.92-2.08-1.92-5.88v-12.32H205v12.08q.12 4.8 4.84 4.8 2.2 0 3.68-1.76 1.48-1.8 1.48-4.28v-10.84h3.68zm14.119-2.72q2.64 0 4.44-2 1.8-1.96 1.8-5.08 0-3.08-1.8-5.08t-4.44-2q-2.68 0-4.48 2-1.76 2-1.76 5.08 0 3.12 1.76 5.12 1.8 1.96 4.48 1.96m.6 3.36q-2.16 0-3.96-.92-1.76-.92-2.72-2.44h-.16l.16 2.72v8.64h-3.68v-28.24h3.52v2.72h.16q.96-1.52 2.72-2.44 1.8-.92 3.96-.92 3.88 0 6.56 3.04 2.76 3.08 2.76 7.4 0 4.36-2.76 7.4-2.68 3.04-6.56 3.04m27.456-6.08q0 2.56-2.24 4.32t-5.64 1.76q-2.96 0-5.2-1.52-2.24-1.56-3.2-4.08l3.28-1.4q.72 1.76 2.08 2.76 1.4.96 3.04.96 1.76 0 2.92-.76 1.2-.76 1.2-1.8 0-1.88-2.88-2.76l-3.36-.84q-5.72-1.44-5.72-5.52 0-2.68 2.16-4.28 2.2-1.64 5.6-1.64 2.6 0 4.68 1.24 2.12 1.24 2.96 3.32l-3.28 1.36q-.56-1.24-1.84-1.92-1.24-.72-2.8-.72-1.44 0-2.6.72-1.12.72-1.12 1.76 0 1.68 3.16 2.4l2.96.76q5.84 1.44 5.84 5.88" style="font-style:normal;font-variant:normal;font-weight:400;font-stretch:normal;font-family:ProductSans;-inkscape-font-specification:ProductSans;fill:#000;fill-opacity:.541176"/></g></svg>